<svg xmlns="http://www.w3.org/2000/svg" viewBox="0 0 512 512" width="512" height="512">
  <!-- 背景渐变 -->
  <defs>
    <linearGradient id="grad1" x1="0%" y1="0%" x2="100%" y2="100%">
      <stop offset="0%" style="stop-color:#667eea;stop-opacity:1" />
      <stop offset="100%" style="stop-color:#764ba2;stop-opacity:1" />
    </linearGradient>
    <linearGradient id="grad2" x1="0%" y1="0%" x2="100%" y2="100%">
      <stop offset="0%" style="stop-color:#f093fb;stop-opacity:1" />
      <stop offset="100%" style="stop-color:#f5576c;stop-opacity:1" />
    </linearGradient>
  </defs>
  
  <!-- 背景 -->
  <rect width="512" height="512" rx="100" fill="url(#grad1)"/>
  
  <!-- 3D 立方体效果 -->
  <!-- 顶面 -->
  <path d="M 256 140 L 370 200 L 256 260 L 142 200 Z" fill="#ffffff" opacity="0.9"/>
  
  <!-- 左侧面 -->
  <path d="M 142 200 L 142 320 L 256 380 L 256 260 Z" fill="#e0e0e0" opacity="0.8"/>
  
  <!-- 右侧面 -->
  <path d="M 256 260 L 256 380 L 370 320 L 370 200 Z" fill="#f5f5f5" opacity="0.85"/>
  
  <!-- 边框线条 -->
  <path d="M 256 140 L 370 200 L 256 260 L 142 200 Z" 
        fill="none" stroke="#333333" stroke-width="3" stroke-linejoin="round"/>
  <path d="M 142 200 L 142 320 L 256 380 L 256 260" 
        fill="none" stroke="#333333" stroke-width="3" stroke-linejoin="round"/>
  <path d="M 256 260 L 256 380 L 370 320 L 370 200" 
        fill="none" stroke="#333333" stroke-width="3" stroke-linejoin="round"/>
  <line x1="256" y1="260" x2="256" y2="140" stroke="#333333" stroke-width="3"/>
  
  <!-- 装饰小方块 -->
  <circle cx="256" cy="140" r="8" fill="#FF6B6B"/>
  <circle cx="370" cy="200" r="8" fill="#4ECDC4"/>
  <circle cx="256" cy="260" r="8" fill="#FFE66D"/>
  <circle cx="142" cy="200" r="8" fill="#95E1D3"/>
</svg>
